<?xml version="1.0" encoding="utf-8" ?>
<svg baseProfile="full" height="200mm" version="1.1" viewBox="0,0,200,200" width="200mm" xmlns="http://www.w3.org/2000/svg" xmlns:ev="http://www.w3.org/2001/xml-events" xmlns:xlink="http://www.w3.org/1999/xlink"><defs /><rect fill="#1a1a1a" height="200" width="200" x="0" y="0" /><rect fill="#1a1a1a" height="200" width="180" x="10" y="0" /><text alignment-baseline="middle" fill="#e1ed5e" style="dominant-baseline: central; font-size:9.0px; font-family:Arial;" text-anchor="middle" x="100.0" y="100.0">2025</text><line stroke="#e1ed5e" stroke-width="0.3" x1="100.0" x2="100.0" y1="15.0" y2="10.0" /><path d="M 100.0 14.0 a86.0,86.0 0 0,1 42.46469731375804,11.215312516191453" fill="none" id="id13" stroke="none" /><text fill="#e1ed5e" style="font-size:6.75px; font-family:Arial;" text-anchor="middle"><textPath startOffset="22.20632615414155" xlink:href="#id13">January</textPath></text><path d="M 107.4271985657038 80.35727306442388 l 4.953928186433287 -13.101663805502668 a35.00696251686128,35.00696251686128 0 0,0 0.5618064624003751,0.21797217922427423 l -5.1787178138333285 13.014448922387848" fill="#ff9f0e" stroke="none" /><path d="M 108.43124777332544 80.76684994638697 l 2.2560908400029724 -5.146537597630649 a26.619323368713637,26.619323368713637 0 0,0 0.41807280196746965,0.18757707971313428 l -2.3443457604372226 5.106940187400984" fill="#ff2903" stroke="none" /><path d="M 109.41281617654863 81.2277094730956 l 3.6559581694261722 -7.291198258143647 a29.15644543757579,29.15644543757579 0 0,0 0.4467038351776518,0.22881905444908243 l -3.7809224921925795 7.227186678382065" fill="#ff4d07" stroke="none" /><path d="M 110.05341064243156 81.56283822128135 l 1.8089646280156289 -3.3174983779074076 a24.778643739866197,24.778643739866197 0 0,0 0.3727131744233214,0.20741447803858648 l -1.8658018915109855 3.285868502308641" fill="#ff0d01" stroke="none" /><line stroke="#e1ed5e" stroke-width="0.3" x1="143.23703022742887" x2="145.7803849466894" y1="26.81831364943548" y2="22.513508569990506" /><path d="M 143.74570117128098 25.957352633546492 a86.0,86.0 0 0,1 28.547481713284135,27.462654790039103" fill="none" id="id14" stroke="none" /><text fill="#e1ed5e" style="font-size:6.75px; font-family:Arial;" text-anchor="middle"><textPath startOffset="19.985693538727396" xlink:href="#id14">February</textPath></text><path d="M 111.2981086023043 82.29822771554956 l 5.462864032945543 -8.559164948405058 a31.153924761217006,31.153924761217006 0 0,0 0.4495555466135404,0.29240343271852337 l -5.609386605343364 8.463862591527008" fill="#ff6a09" stroke="none" /><path d="M 117.45458315368197 88.32363383020206 l 18.060081889382563 -12.081418807901096 a42.72848909296526,42.72848909296526 0 0,0 0.4036893334341198,0.614846550353385 l -18.265367858174606 11.768754193570038" fill="#fbff18" stroke="none" /><path d="M 117.65298651832404 88.62581576622439 l 7.98068061910525 -5.142117543589644 a30.493820936601583,30.493820936601583 0 0,0 0.28050308047470146,0.44368851035049534 l -8.068011295825908 5.003981385524943" fill="#ff6108" stroke="none" /><line stroke="#e1ed5e" stroke-width="0.3" x1="172.23445277983987" x2="176.4835382374775" y1="55.19839476539836" y2="52.563006222186495" /><path d="M 173.08426987136738 54.67131705675599 a86.0,86.0 0 0,1 12.851231095245387,41.99856678651699" fill="none" id="id15" stroke="none" /><text fill="#e1ed5e" style="font-size:6.75px; font-family:Arial;" text-anchor="middle"><textPath startOffset="22.20632615414155" xlink:href="#id15">March</textPath></text><path d="M 118.03404312379186 89.2402003453031 l 14.58660774130579 -8.702927893692475 a37.98558445628329,37.98558445628329 0 0,0 0.330185759623087,0.564394494482393 l -14.734253175399205 8.450553986856187" fill="#ffc712" stroke="none" /><path d="M 118.21658344932153 89.55222093294921 l 9.55642766974749 -5.480909482370111 a32.01660921341272,32.01660921341272 0 0,0 0.27007131780392146,0.48042673900571214 l -9.649356628843844 5.315599233429605" fill="#ff760a" stroke="none" /><path d="M 118.3937258080291 89.86733742301442 l 12.147282386458686 -6.691646648098788 a34.8684751951821,34.8684751951821 0 0,0 0.28507784683879167,0.5282059543708516 l -12.260668332515943 6.481559710395478" fill="#ff9d0e" stroke="none" /><path d="M 119.04729006885535 91.15688171328212 l 11.986144343875907 -5.564827954601465 a34.21495237965473,34.21495237965473 0 0,0 0.24341117193951595,0.5363242519952014 l -12.080157832778768 5.3576816937642" fill="#ff940d" stroke="none" /><path d="M 119.196687751892 91.48605970444005 l 56.32489656871812 -24.980705668476144 a82.61598517569796,82.61598517569796 0 0,0 0.5653659326308174,1.3049425215999788 l -56.74655321119162 24.007464002289563" fill="#4bdfff" stroke="none" /><path d="M 119.61058180528143 92.48833698450437 l 12.41783519979629 -4.756543907213823 a34.29764418950036,34.29764418950036 0 0,0 0.20643165955984474,0.5531342162563856 l -12.49787144785776 4.542086553928104" fill="#ff950d" stroke="none" /><path d="M 119.97218684219823 93.5106431181261 l 14.963696947648899 -4.861999866751349 a36.73376207540228,36.73376207540228 0 0,0 0.19021881839349694,0.6030456362869739 l -15.045171249810602 4.603704064037956" fill="#ffb610" stroke="none" /><path d="M 120.28053869075195 94.5502522615342 l 12.56214583707267 -3.3756759083072447 a34.0077936587958,34.0077936587958 0 0,0 0.14704916234364374,0.5666404076385614 l -12.618391331286617 3.158939075119833" fill="#ff910d" stroke="none" /><line stroke="#e1ed5e" stroke-width="0.3" x1="184.98032266829074" x2="189.97916517819016" y1="98.17113171792111" y2="98.06355123074" /><path d="M 185.9800911702706 98.14961562048488 a86.0,86.0 0 0,1 -9.607161424134198,41.387399972396054" fill="none" id="id16" stroke="none" /><text fill="#e1ed5e" style="font-size:6.75px; font-family:Arial;" text-anchor="middle"><textPath startOffset="21.466115282336823" xlink:href="#id16">April</textPath></text><path d="M 120.95626037817324 101.35467743843564 l 12.552112684104685 0.8114073575631294 a33.57831128309239,33.57831128309239 0 0,0 -0.0422502161114,0.5764706308870671 l -12.536285909328948 -1.0273511249469667" fill="#ff8c0c" stroke="none" /><path d="M 120.89721153311464 102.0752229133903 l 13.264161422344714 1.3172136228289768 a34.329404711620995,34.329404711620995 0 0,0 -0.06345659436876537,0.5875292533743884 l -13.239522526474897 -1.5453391980881568" fill="#ff960d" stroke="none" /><path d="M 120.8583938346157 102.4346265915055 l 13.217639018166677 1.5427849184218956 a34.30737263771749,34.30737263771749 0 0,0 -0.07351333287634601,0.58597359343789 l -13.189124176043482 -1.7700762661471805" fill="#ff960d" stroke="none" /><path d="M 120.81339534386255 102.79330883721812 l 13.18118370393268 1.7690105971127752 a34.29936097447985,34.29936097447985 0 0,0 -0.08356949303730529,0.5844848396617169 l -13.148780159878772 -1.9956409087549014" fill="#ff950d" stroke="none" /><path d="M 120.76222939487914 103.15116336523771 l 13.332942291636115 2.0235919034106558 a34.48563214475495,34.48563214475495 0 0,0 -0.09412647306091963,0.5861256376010815 l -13.296134064213907 -2.2527967707049426" fill="#ff980e" stroke="none" /><path d="M 120.64145759157962 103.86396538481128 l 23.95621811607593 4.484470010938919 a45.37233796138596,45.37233796138596 0 0,0 -0.15031221871544953,0.766438764887412 l -23.875475964384815 -4.8961725028942755" fill="#daff1c" stroke="none" /><path d="M 120.5718875245553 104.21870165774334 l 13.10671945074061 2.687810683799251 a34.37947760685624,34.37947760685624 0 0,0 -0.12387410577496479,0.5786985823673789 l -13.0585113062412 -2.913023085582799" fill="#ff970d" stroke="none" /><path d="M 120.49622156327973 104.57218783832717 l 13.043989437380537 2.9097836244953235 a34.36459880370062,34.36459880370062 0 0,0 -0.13375918372562334,0.5762310626869048 l -12.99196968772436 -3.133883344530793" fill="#ff960d" stroke="none" /><path d="M 120.41448212921028 104.9243191809786 l 9.033574538584908 2.1790513269745344 a30.29267096317087,30.29267096317087 0 0,0 -0.12663589382614016,0.5058474465275665 l -8.994727330463707 -2.3342266128994966" fill="#ff5e08" stroke="none" /><path d="M 120.32669344350535 105.2749913415812 l 11.012911832021402 2.8579667775759963 a32.377706320766286,32.377706320766286 0 0,0 -0.14463880540914684,0.5382548018837557 l -10.962084950270476 -3.0471125126353003" fill="#ff7b0b" stroke="none" /><path d="M 120.13307415673323 105.97154293290107 l 13.006548009583325 3.857789388914087 a34.56660716962108,34.56660716962108 0 0,0 -0.1741057906592131,0.5689877975679375 l -12.93821544641798 -4.081104159034082" fill="#ff990e" stroke="none" /><path d="M 120.02730092923936 106.31721596034902 l 23.461464707726094 7.400455000325478 a45.60095649448857,45.60095649448857 0 0,0 -0.24257048578597007,0.7465551907080892 l -23.330601970923876 -7.803209091011363" fill="#d7ff1c" stroke="none" /><path d="M 119.9155931802556 106.66101706037122 l 10.939696416034293 3.6589171009342296 a32.535364408049816,32.535364408049816 0 0,0 -0.18221224633285346,0.5295940795051549 l -10.875093338758209 -3.846683883528685" fill="#ff7d0b" stroke="none" /><path d="M 119.79798401119884 107.00284435728193 l 12.706986154422525 4.494651891789712 a34.47847887400706,34.47847887400706 0 0,0 -0.20272645992303331,0.5578161501581651 l -12.627735433494266 -4.712715838954008" fill="#ff980e" stroke="none" /><path d="M 119.67450827220406 107.3425965602758 l 12.717002955664551 4.746030796164802 a34.57376044036897,34.57376044036897 0 0,0 -0.21288500004302033,0.5557755586011958 l -12.633423676028025 -4.9642299215991414" fill="#ff990e" stroke="none" /><path d="M 119.54520255179757 107.68017299344265 l 22.653026373953324 8.901374182022971 a45.339146785115744,45.339146785115744 0 0,0 -0.2916762001175946,0.723916408500799 l -22.49644755957834 -9.289989958366585" fill="#daff1b" stroke="none" /><path d="M 119.41010516605496 108.01547362559984 l 12.648714452017368 5.223332703276379 a34.68477920237625,34.68477920237625 0 0,0 -0.23263414848648115,0.5498784080055 l -12.556929322338577 -5.440285636948042" fill="#ff9b0e" stroke="none" /><path d="M 119.12269723197855 108.67885076344098 l 22.371260297779212 10.153213595299365 a45.56747918738844,45.56747918738844 0 0,0 -0.3303108085211055,0.7114600957254386 l -22.193174872418275 -10.536793758303634" fill="#d8ff1c" stroke="none" /><path d="M 118.97047184881838 109.00673069616215 l 10.757076654889076 5.107205201888194 a32.9079067486,32.9079067486 0 0,0 -0.2473526624711036,0.5096197481290269 l -10.667570735803258 -5.291613905982496" fill="#ff820c" stroke="none" /><path d="M 118.64920377521936 109.65438752849418 l 23.6676902052683 12.252375806501078 a47.65108389083427,47.65108389083427 0 0,0 -0.3833586239867454,0.7251700441134104 l -23.453279073056663 -12.657960865700622" fill="#bfff1e" stroke="none" /><line stroke="#e1ed5e" stroke-width="0.3" x1="174.80103733775053" x2="179.2010983576182" y1="140.37084112569926" y2="142.7455964860345" /><path d="M 175.68104954172406 140.8457921977663 a86.0,86.0 0 0,1 -30.038265399797805,32.042727171017184" fill="none" id="id17" stroke="none" /><text fill="#e1ed5e" style="font-size:6.75px; font-family:Arial;" text-anchor="middle"><textPath startOffset="22.206326154141568" xlink:href="#id17">May</textPath></text><path d="M 118.48025628344425 109.97397251340804 l 8.39572146197705 4.531251829391967 a30.540460261877836,30.540460261877836 0 0,0 -0.25366555885143915,0.4604766714576578 l -8.316479493674102 -4.67509901924743" fill="#ff6109" stroke="none" /><path d="M 117.94076556474637 110.91462005526583 l 41.73948087938144 25.393039859886358 a69.85683920809886,69.85683920809886 0 0,0 -0.6338189538177283,1.0219179659025797 l -41.29619728589575 -26.10775415715421" fill="#3bff9a" stroke="none" /><path d="M 117.75023020441432 111.22182372390056 l 53.25069061324299 33.665471171701654 a84.0,84.0 0 0,0 -0.7831805464917987,1.2155136003141882 l -52.663305203374144 -34.5771063719373" fill="#4dd2ff" stroke="none" /><path d="M 117.14729908036423 112.12312394758627 l 10.886769790684834 7.69693576479606 a34.33283828157998,34.33283828157998 0 0,0 -0.3453232966747703,0.47962385625221426 l -10.75266670163446 -7.883193226499406" fill="#ff960d" stroke="none" /><path d="M 116.93607887273984 112.41649034213515 l 10.903813700144465 7.994004900284352 a34.52025397517474,34.52025397517474 0 0,0 -0.3554579044264523,0.4761939510797854 l -10.76459452902292 -8.180511730873453" fill="#ff980e" stroke="none" /><path d="M 116.498646956653 112.99209946851258 l 19.202525059396073 15.121307600177301 a45.441581622225556,45.441581622225556 0 0,0 -0.48921560250869195,0.6103716844672348 l -18.939391544832528 -15.449607118222785" fill="#d9ff1c" stroke="none" /><path d="M 116.27256486870786 113.27417163493432 l 10.234512751073732 8.348694871017239 a34.20779910890684,34.20779910890684 0 0,0 -0.3761294118611748,0.45307210671695386 l -10.089287339319013 -8.523628234847962" fill="#ff940d" stroke="none" /><path d="M 116.0416608686014 113.55231037782055 l 9.94131403930344 8.398617482790078 a34.014088537053944,34.014088537053944 0 0,0 -0.381698797327594,0.4440019342454212 l -9.795272732405069 -8.568496516197028" fill="#ff920d" stroke="none" /><path d="M 115.80600337817218 113.82643327865902 l 8.399086176457084 7.347170682050084 a32.15910236671072,32.15910236671072 0 0,0 -0.36805503129010003,0.41351372937902514 l -8.271372295518646 -7.490658581169976" fill="#ff780b" stroke="none" /><path d="M 115.32070863581623 114.36230785411682 l 34.03838825838377 31.909086103367287 a67.65620699521753,67.65620699521753 0 0,0 -0.8037990668502595,0.8427801080461764 l -33.48408264015455 -32.49027332799597" fill="#38ff81" stroke="none" /><path d="M 114.55890576462653 115.13401014063108 l 8.934545741947854 9.287477235349742 a33.8873325794013,33.8873325794013 0 0,0 -0.42385656841379254,0.40078284122832264 l -8.773353339143254 -9.439894713323987" fill="#ff900d" stroke="none" /><path d="M 114.29624159901734 115.38237550388516 l 10.123249845365788 10.892347430094311 a35.87021923071683,35.87021923071683 0 0,0 -0.455894174923842,0.4164485196463723 l -9.93425612097508 -11.064988716327266" fill="#ffab0f" stroke="none" /><path d="M 113.75828350139079 115.86535959552629 l 8.484646622381543 9.784067154266964 a33.95056749281267,33.95056749281267 0 0,0 -0.44480824795589546,0.379075238816869 l -8.3149728978486 -9.92866678330678" fill="#ff910d" stroke="none" /><path d="M 113.48314897796784 116.09983520530334 l 7.1432600072258055 8.529558572177317 a32.12562505961059,32.12562505961059 0 0,0 -0.42701055206240734,0.3514006136169858 l -6.995379326618707 -8.65125430465148" fill="#ff770b" stroke="none" /><path d="M 112.04921762599082 117.19931262002967 l 7.716995823984558 11.015405961120202 a34.44957966018558,34.44957966018558 0 0,0 -0.48859857759151554,0.3360625569471393 l -7.526240361770159 -11.146609307432435" fill="#ff970e" stroke="none" /><path d="M 111.7513745106137 117.40417183066458 l 7.4863715424938935 11.087562275892155 a34.378333083536575,34.378333083536575 0 0,0 -0.4932886463435484,0.3269248165887643 l -7.294408197410381 -11.214785113572239" fill="#ff970d" stroke="none" /><path d="M 111.1453310114006 117.79835938074945 l 5.795213740507537 9.254574560082848 a31.919324731241396,31.919324731241396 0 0,0 -0.46818171149225807,0.28759544620005006 l -5.635052829082969 -9.352958473111276" fill="#ff750a" stroke="none" /><line stroke="#e1ed5e" stroke-width="0.3" x1="143.8653032363475" x2="146.44561519142675" y1="172.8068346515853" y2="177.08958963109032" /><path d="M 144.38136562736335 173.6633856474863 a86.0,86.0 0 0,1 -40.68145358897372,12.25698825130547" fill="none" id="id18" stroke="none" /><text fill="#e1ed5e" style="font-size:6.75px; font-family:Arial;" text-anchor="middle"><textPath startOffset="21.466115282336833" xlink:href="#id18">June</textPath></text><path d="M 110.8373102113329 117.98757091392108 l 20.675100675271484 34.316157081117915 a61.0631804123009,61.0631804123009 0 0,0 -0.9049916019761146,0.5346849902142019 l -20.081341202266987 -34.66696064362587" fill="#30ff32" stroke="none" /><path d="M 106.2309692047433 120.05430185196036 l 0.8581559102577265 2.7619648075377112 a23.892210428787486,23.892210428787486 0 0,0 -0.3937948545401473,0.118647159324497 l -0.8104860812773333 -2.7763273359679337" fill="#ff0000" stroke="none" /><path d="M 103.41894727170886 120.7198165907248 l 2.794580502633963 16.935972058337722 a38.16498848664041,38.16498848664041 0 0,0 -0.6491031025343719,0.1013765551363344 l -2.5026415364910743 -16.98156692082116" fill="#ffc912" stroke="none" /><line stroke="#e1ed5e" stroke-width="0.3" x1="102.19456741930631" x2="102.32365962044197" y1="184.97166512339345" y2="189.96999836594603" /><path d="M 102.22038585953345 185.97133177190398 a86.0,86.0 0 0,1 -42.740103519485714,-10.115201625700543" fill="none" id="id19" stroke="none" /><text fill="#e1ed5e" style="font-size:6.75px; font-family:Arial;" text-anchor="middle"><textPath startOffset="22.20632615414155" xlink:href="#id19">July</textPath></text><line stroke="#e1ed5e" stroke-width="0.3" x1="58.666819895761336" x2="56.23545636021788" y1="174.27360380694188" y2="178.64263932499728" /><path d="M 58.180547188652646 175.14741091055294 a86.0,86.0 0 0,1 -31.652253787137756,-30.449443065178592" fill="none" id="id20" stroke="none" /><text fill="#e1ed5e" style="font-size:6.75px; font-family:Arial;" text-anchor="middle"><textPath startOffset="22.20632615414155" xlink:href="#id20">August</textPath></text><path d="M 87.36589467227662 116.77436683061367 l -6.898294153364199 9.158900739895923 a32.466120747210226,32.466120747210226 0 0,0 -0.4435046352207708,-0.3400604422794545 l 7.054927517078457 -9.038800955789103" fill="#ff7c0b" stroke="none" /><path d="M 85.44109423537348 115.13401014063109 l -7.598529632444766 7.898685956928778 a31.960241439919336,31.960241439919336 0 0,0 -0.3931871380040131,-0.38481636945968706 l 7.733366722824574 -7.766719484546521" fill="#ff750a" stroke="none" /><path d="M 85.18274418774928 114.88116024355367 l -7.4509236985397145 7.483058329113014 a31.55994440886733,31.55994440886733 0 0,0 -0.38166398835038406,-0.38662360517251876 l 7.578628311945632 -7.35369422995983" fill="#ff700a" stroke="none" /><path d="M 83.28015986056508 112.70617746262583 l -8.346137415670947 6.342614656993994 a31.482689084790103,31.482689084790103 0 0,0 -0.32417984803464206,-0.43429188315602785 l 8.454078530400675 -6.198009894328658" fill="#ff6e0a" stroke="none" /><line stroke="#e1ed5e" stroke-width="0.3" x1="26.63291911575756" x2="22.317208475507996" y1="142.92168965132927" y2="145.44649492493687" /><path d="M 25.769776987707644 143.4266507060508 a86.0,86.0 0 0,1 -11.730757126820373,-40.83630448921669" fill="none" id="id21" stroke="none" /><text fill="#e1ed5e" style="font-size:6.75px; font-family:Arial;" text-anchor="middle"><textPath startOffset="21.46611528233685" xlink:href="#id21">September</textPath></text><line stroke="#e1ed5e" stroke-width="0.3" x1="15.007084014347285" x2="10.007500721073583" y1="101.09737516637583" y2="101.16192664675087" /><path d="M 14.007167355692545 101.11028546245083 a86.0,86.0 0 0,1 10.666146001902534,-42.60595125391555" fill="none" id="id22" stroke="none" /><text fill="#e1ed5e" style="font-size:6.75px; font-family:Arial;" text-anchor="middle"><textPath startOffset="22.20632615414155" xlink:href="#id22">October</textPath></text><line stroke="#e1ed5e" stroke-width="0.3" x1="26.266209847984243" x2="21.928928074336255" y1="57.711370442889674" y2="55.22380399835377" /><path d="M 25.398753493254645 57.213857153982495 a86.0,86.0 0 0,1 29.58750427330803,-30.492523968695096" fill="none" id="id23" stroke="none" /><text fill="#e1ed5e" style="font-size:6.75px; font-family:Arial;" text-anchor="middle"><textPath startOffset="21.46611528233685" xlink:href="#id23">November</textPath></text><line stroke="#e1ed5e" stroke-width="0.3" x1="56.762969772571076" x2="54.21961505331055" y1="26.818313649435495" y2="22.513508569990535" /><path d="M 56.25429882871897 25.957352633546506 a86.0,86.0 0 0,1 42.265352541879196,-11.944610805530505" fill="none" id="id24" stroke="none" /><text fill="#e1ed5e" style="font-size:6.75px; font-family:Arial;" text-anchor="middle"><textPath startOffset="22.20632615414155" xlink:href="#id24">December</textPath></text></svg>