<?xml version="1.0" encoding="utf-8" ?>
<svg baseProfile="full" height="200mm" version="1.1" viewBox="0,0,200,200" width="200mm" xmlns="http://www.w3.org/2000/svg" xmlns:ev="http://www.w3.org/2001/xml-events" xmlns:xlink="http://www.w3.org/1999/xlink"><defs /><rect fill="#1a1a1a" height="200" width="200" x="0" y="0" /><rect fill="#1a1a1a" height="200" width="180" x="10" y="0" /><text alignment-baseline="middle" fill="#e1ed5e" style="dominant-baseline: central; font-size:9.0px; font-family:Arial;" text-anchor="middle" x="100.0" y="100.0">2026</text><line stroke="#e1ed5e" stroke-width="0.3" x1="100.0" x2="100.0" y1="15.0" y2="10.0" /><path d="M 100.0 14.0 a86.0,86.0 0 0,1 42.46469731375804,11.215312516191453" fill="none" id="id25" stroke="none" /><text fill="#e1ed5e" style="font-size:6.75px; font-family:Arial;" text-anchor="middle"><textPath startOffset="22.20632615414155" xlink:href="#id25">January</textPath></text><line stroke="#e1ed5e" stroke-width="0.3" x1="143.23703022742887" x2="145.7803849466894" y1="26.81831364943548" y2="22.513508569990506" /><path d="M 143.74570117128098 25.957352633546492 a86.0,86.0 0 0,1 28.547481713284135,27.462654790039103" fill="none" id="id26" stroke="none" /><text fill="#e1ed5e" style="font-size:6.75px; font-family:Arial;" text-anchor="middle"><textPath startOffset="19.985693538727396" xlink:href="#id26">February</textPath></text><path d="M 114.42810811169701 84.74124197986012 l 1.6716169385963664 -1.7678546744275063 a23.433025552536897,23.433025552536897 0 0,0 0.29069980044258253,0.27965297770461434 l -1.7017999826513672 1.73881860996059" fill="#ff0801" stroke="none" /><path d="M 114.68862486808459 84.99185889309783 l 30.049718904628744 -30.703379356043406 a63.96141420074896,63.96141420074896 0 0,0 0.7802202137572053,0.7768697002061644 l -30.573774918553273 30.181573805187124" fill="#34ff5a" stroke="none" /><path d="M 115.19652480421416 85.50635884689758 l 2.7458781693984142 -2.6188732851843883 a24.794515015786768,24.794515015786768 0 0,0 0.29190544513316824,0.31138437634948907 l -2.7905509365020453 2.5712194919568443" fill="#ff1c02" stroke="none" /><path d="M 115.68641384162765 86.03803664274999 l 2.1472499452422613 -1.911196871191228 a23.87460533078787,23.87460533078787 0 0,0 0.270588110599771,0.30932898630007405 l -2.1798299194198805 1.8739523286882063" fill="#ff0e01" stroke="none" /><path d="M 115.9244219780498 86.31012108654704 l 2.2590486277694564 -1.9420549277326618 a23.979073353403333,23.979073353403333 0 0,0 0.26638396722680374,0.3153145953680713 l -2.2921432084833775 1.9028813827354838" fill="#ff1001" stroke="none" /><path d="M 116.15771136456269 86.58626213691792 l 1.6088207539702286 -1.3356037482989638 a23.090966664219106,23.090966664219106 0 0,0 0.25125336677083054,0.30800691912854267 l -1.631572612817468 1.3077126595623203" fill="#ff0300" stroke="none" /><path d="M 116.38621287248628 86.86637796730983 l 10.95126377037676 -8.777486308744537 a35.03475842572876,35.03475842572876 0 0,0 0.37311336949002255,0.47381608899642114 l -11.100731220460746 8.587677825795078" fill="#ffaa0f" stroke="none" /><path d="M 117.04232023915458 87.72973835380427 l 1.7089976334494998 -1.2304573450613043 a23.105872310742345,23.105872310742345 0 0,0 0.22961447427022966,0.32477339013564455 l -1.7299247275236125 1.2008574545938666" fill="#ff0300" stroke="none" /><path d="M 117.2510076193507 88.02491185347247 l 1.570111075421787 -1.089920017595049 a22.91132792422351,22.91132792422351 0 0,0 0.22210408687679387,0.3259103412868563 l -1.5886396279673143 1.0627316530377862" fill="#ff0000" stroke="none" /><line stroke="#e1ed5e" stroke-width="0.3" x1="172.23445277983987" x2="176.4835382374775" y1="55.19839476539836" y2="52.563006222186495" /><path d="M 173.08426987136738 54.67131705675599 a86.0,86.0 0 0,1 12.851231095245387,41.99856678651699" fill="none" id="id27" stroke="none" /><text fill="#e1ed5e" style="font-size:6.75px; font-family:Arial;" text-anchor="middle"><textPath startOffset="22.20632615414155" xlink:href="#id27">March</textPath></text><path d="M 118.03404312379186 89.2402003453031 l 1.7379896908713435 -1.0369511011667292 a23.023827006388135,23.023827006388135 0 0,0 0.20013223222309331,0.3420908586854991 l -1.7555815975647642 1.0068808301273349" fill="#ff0200" stroke="none" /><path d="M 119.34039704204932 91.81776055985345 l 2.7978416603527565 -1.1836680669404551 a24.037924957779573,24.037924957779573 0 0,0 0.15793868268717143,0.38246104771092215 l -2.817802029926125 1.13533244877623" fill="#ff1101" stroke="none" /><path d="M 119.47837535516314 92.15188598940014 l 2.233014547486714 -0.8997132685071925 a23.407454658932373,23.407454658932373 0 0,0 0.14736268984583342,0.3750219720406955 l -2.248170787214248 0.8611422915707125" fill="#ff0701" stroke="none" /><path d="M 120.91429891909075 98.10471618934814 l 8.862291477564517 -0.8031135840453141 a29.898606725897643,29.898606725897643 0 0,0 0.042036752221907336,0.5129548522961486 l -8.874802713605918 0.6504448145413968" fill="#ff6409" stroke="none" /><line stroke="#e1ed5e" stroke-width="0.3" x1="184.98032266829074" x2="189.97916517819016" y1="98.17113171792111" y2="98.06355123074" /><path d="M 185.9800911702706 98.14961562048488 a86.0,86.0 0 0,1 -9.607161424134198,41.387399972396054" fill="none" id="id28" stroke="none" /><text fill="#e1ed5e" style="font-size:6.75px; font-family:Arial;" text-anchor="middle"><textPath startOffset="21.466115282336823" xlink:href="#id28">April</textPath></text><path d="M 120.9764740272857 100.99374915477107 l 2.394746091025304 0.11344980575630335 a23.397431896615025,23.397431896615025 0 0,0 -0.022521308499576474,0.402133092219242 l -2.3924384316381984 -0.1546546143109687" fill="#ff0701" stroke="none" /><path d="M 120.95626037817324 101.35467743843564 l 2.396734113667399 0.1549323004736064 a23.40173654453337,23.40173654453337 0 0,0 -0.029445448225576317,0.4017597465204536 l -2.393712106777485 -0.19616518349083029" fill="#ff0701" stroke="none" /><path d="M 120.70491114924044 103.5080841355445 l 33.5391232435664 5.682616328210776 a55.017126808135686,55.017126808135686 0 0,0 -0.16623963944058115,0.932360181883251 l -33.43633716178663 -6.259095260827245" fill="#67ff28" stroke="none" /><path d="M 120.13307415673323 105.97154293290107 l 2.3226679647982493 0.6889117559837783 a23.42268154783758,23.42268154783758 0 0,0 -0.1179758392321825,0.3855518686471469 l -2.3104653530599344 -0.7287905971829823" fill="#ff0801" stroke="none" /><path d="M 120.02730092923936 106.31721596034902 l 2.802177574824705 0.8838914920167956 a23.938275570893605,23.938275570893605 0 0,0 -0.12733766088463286,0.3919050225670425 l -2.7865476629238253 -0.9319954145616334" fill="#ff0f01" stroke="none" /><path d="M 119.79798401119884 107.00284435728193 l 2.2900671228167924 0.8100311435620424 a23.429106395476907,23.429106395476907 0 0,0 -0.13775839172231807,0.37905192914481056 l -2.275784470089248 -0.8493308697129841" fill="#ff0801" stroke="none" /><path d="M 119.54520255179757 107.68017299344265 l 2.802952445153092 1.1014037646383443 a24.01158308245833,24.01158308245833 0 0,0 -0.15447152866578773,0.38338566603062296 l -2.783578302229912 -1.1494887985117808" fill="#ff1001" stroke="none" /><path d="M 119.26925614724726 108.34839909993367 l 56.95630520859114 24.676301124725924 a83.07205925545193,83.07205925545193 0 0,0 -0.5797595663627837,1.3072047700924816 l -56.523104557497085 -25.653054231311096" fill="#4cdbff" stroke="none" /><line stroke="#e1ed5e" stroke-width="0.3" x1="174.80103733775053" x2="179.2010983576182" y1="140.37084112569926" y2="142.7455964860345" /><path d="M 175.68104954172406 140.8457921977663 a86.0,86.0 0 0,1 -30.038265399797805,32.042727171017184" fill="none" id="id29" stroke="none" /><text fill="#e1ed5e" style="font-size:6.75px; font-family:Arial;" text-anchor="middle"><textPath startOffset="22.206326154141568" xlink:href="#id29">May</textPath></text><path d="M 118.12598468904814 110.60418214915192 l 5.985541129511839 3.5017004310355757 a27.934595051031646,27.934595051031646 0 0,0 -0.24638196347984367,0.41295034265627917 l -5.9243782903337685 -3.6042128675779592" fill="#ff4906" stroke="none" /><path d="M 117.94076556474637 110.91462005526583 l 4.7524454343577425 2.8912443040515723 a26.56282583155885,26.56282583155885 0 0,0 -0.2410075043453909,0.3885808354647694 l -4.701973290344389 -2.972621470881615" fill="#ff3505" stroke="none" /><line stroke="#e1ed5e" stroke-width="0.3" x1="143.8653032363475" x2="146.44561519142675" y1="172.8068346515853" y2="177.08958963109032" /><path d="M 144.38136562736335 173.6633856474863 a86.0,86.0 0 0,1 -40.68145358897372,12.25698825130547" fill="none" id="id30" stroke="none" /><text fill="#e1ed5e" style="font-size:6.75px; font-family:Arial;" text-anchor="middle"><textPath startOffset="21.466115282336833" xlink:href="#id30">June</textPath></text><path d="M 106.57524785965236 119.94407469862006 l 0.7614956815211615 2.309772510345731 a23.432061825391,23.432061825391 0 0,0 -0.3841504155710256,0.12299283199555283 l -0.7216239208591956 -2.3225381890009906" fill="#ff0801" stroke="none" /><path d="M 105.18746579009965 120.34920634021253 l 0.594805794849582 2.3332830213258604 a23.407904398267128,23.407904398267128 0 0,0 -0.3912984738122198,0.09617164461847484 l -0.554554036294151 -2.3431759242583654" fill="#ff0701" stroke="none" /><path d="M 104.83641907484287 120.43548508189849 l 14.509257224528598 61.306455245695496 a84.0,84.0 0 0,0 -1.4099194024285517,0.32089306568926235 l -13.451817672707184 -61.54712504496244" fill="#4dd2ff" stroke="none" /><path d="M 104.48393922423573 120.51570834832081 l 0.5297769199939276 2.4239286566422296 a23.481147661355458,23.481147661355458 0 0,0 -0.3956109780011977,0.0829041268936415 l -0.4879744805633519 -2.432688764262412" fill="#ff0801" stroke="none" /><line stroke="#e1ed5e" stroke-width="0.3" x1="102.19456741930631" x2="102.32365962044197" y1="184.97166512339345" y2="189.96999836594603" /><path d="M 102.22038585953345 185.97133177190398 a86.0,86.0 0 0,1 -42.740103519485714,-10.115201625700543" fill="none" id="id31" stroke="none" /><text fill="#e1ed5e" style="font-size:6.75px; font-family:Arial;" text-anchor="middle"><textPath startOffset="22.20632615414155" xlink:href="#id31">July</textPath></text><line stroke="#e1ed5e" stroke-width="0.3" x1="58.666819895761336" x2="56.23545636021788" y1="174.27360380694188" y2="178.64263932499728" /><path d="M 58.180547188652646 175.14741091055294 a86.0,86.0 0 0,1 -31.652253787137756,-30.449443065178592" fill="none" id="id32" stroke="none" /><text fill="#e1ed5e" style="font-size:6.75px; font-family:Arial;" text-anchor="middle"><textPath startOffset="22.20632615414155" xlink:href="#id32">August</textPath></text><line stroke="#e1ed5e" stroke-width="0.3" x1="26.63291911575756" x2="22.317208475507996" y1="142.92168965132927" y2="145.44649492493687" /><path d="M 25.769776987707644 143.4266507060508 a86.0,86.0 0 0,1 -11.730757126820373,-40.83630448921669" fill="none" id="id33" stroke="none" /><text fill="#e1ed5e" style="font-size:6.75px; font-family:Arial;" text-anchor="middle"><textPath startOffset="21.46611528233685" xlink:href="#id33">September</textPath></text><line stroke="#e1ed5e" stroke-width="0.3" x1="15.007084014347285" x2="10.007500721073583" y1="101.09737516637583" y2="101.16192664675087" /><path d="M 14.007167355692545 101.11028546245083 a86.0,86.0 0 0,1 10.666146001902534,-42.60595125391555" fill="none" id="id34" stroke="none" /><text fill="#e1ed5e" style="font-size:6.75px; font-family:Arial;" text-anchor="middle"><textPath startOffset="22.20632615414155" xlink:href="#id34">October</textPath></text><line stroke="#e1ed5e" stroke-width="0.3" x1="26.266209847984243" x2="21.928928074336255" y1="57.711370442889674" y2="55.22380399835377" /><path d="M 25.398753493254645 57.213857153982495 a86.0,86.0 0 0,1 29.58750427330803,-30.492523968695096" fill="none" id="id35" stroke="none" /><text fill="#e1ed5e" style="font-size:6.75px; font-family:Arial;" text-anchor="middle"><textPath startOffset="21.46611528233685" xlink:href="#id35">November</textPath></text><line stroke="#e1ed5e" stroke-width="0.3" x1="56.762969772571076" x2="54.21961505331055" y1="26.818313649435495" y2="22.513508569990535" /><path d="M 56.25429882871897 25.957352633546506 a86.0,86.0 0 0,1 42.265352541879196,-11.944610805530505" fill="none" id="id36" stroke="none" /><text fill="#e1ed5e" style="font-size:6.75px; font-family:Arial;" text-anchor="middle"><textPath startOffset="22.20632615414155" xlink:href="#id36">December</textPath></text></svg>