<?xml version="1.0" encoding="utf-8" ?>
<svg baseProfile="full" height="200mm" version="1.1" viewBox="0,0,200,200" width="200mm" xmlns="http://www.w3.org/2000/svg" xmlns:ev="http://www.w3.org/2001/xml-events" xmlns:xlink="http://www.w3.org/1999/xlink"><defs /><rect fill="#1a1a1a" height="200" width="200" x="0" y="0" /><rect fill="#1a1a1a" height="200" width="180" x="10" y="0" /><text alignment-baseline="middle" fill="#e1ed5e" style="dominant-baseline: central; font-size:9.0px; font-family:Arial;" text-anchor="middle" x="100.0" y="100.0">2025</text><line stroke="#e1ed5e" stroke-width="0.3" x1="100.0" x2="100.0" y1="15.0" y2="10.0" /><path d="M 100.0 14.0 a86.0,86.0 0 0,1 42.46469731375804,11.215312516191453" fill="none" id="id13" stroke="none" /><text fill="#e1ed5e" style="font-size:6.75px; font-family:Arial;" text-anchor="middle"><textPath startOffset="22.20632615414155" xlink:href="#id13">January</textPath></text><path d="M 107.4271985657038 80.35727306442388 l 2.52883777699112 -6.688022338217754 a28.150151278038603,28.150151278038603 0 0,0 0.4517654708811975,0.17527798410420933 l -2.6435864128719846 6.643501650222998" fill="#ff5107" stroke="none" /><path d="M 108.43124777332544 80.76684994638697 l 1.1516694489329722 -2.62715933857003 a23.868502869066248,23.868502869066248 0 0,0 0.3748694786497623,0.16819300788712613 l -1.1967210460495148 2.606946000166373" fill="#ff1402" stroke="none" /><path d="M 109.41281617654863 81.2277094730956 l 1.8662614357760048 -3.7219468875669404 a25.16363067292645,25.16363067292645 0 0,0 0.3855302030097138,0.1974835440559005 l -1.9300521263744743 3.689270818198539" fill="#ff2703" stroke="none" /><path d="M 110.05341064243156 81.56283822128135 l 0.9234243849344539 -1.6934874522674905 a22.92888888888889,22.92888888888889 0 0,0 0.3448896983020891,0.1919307437009591 l -0.9524381723085781 1.6773413110063515" fill="#ff0701" stroke="none" /><line stroke="#e1ed5e" stroke-width="0.3" x1="143.23703022742887" x2="145.7803849466894" y1="26.81831364943548" y2="22.513508569990506" /><path d="M 143.74570117128098 25.957352633546492 a86.0,86.0 0 0,1 28.547481713284135,27.462654790039103" fill="none" id="id14" stroke="none" /><text fill="#e1ed5e" style="font-size:6.75px; font-family:Arial;" text-anchor="middle"><textPath startOffset="19.985693538727396" xlink:href="#id14">February</textPath></text><path d="M 111.2981086023043 82.29822771554956 l 2.7886348806814287 -4.369207393902228 a26.183286384976526,26.183286384976526 0 0,0 0.3778285308562571,0.24575018645324076 l -2.8634304373219663 4.320558283289459" fill="#ff3605" stroke="none" /><path d="M 117.45458315368197 88.32363383020206 l 9.219152078646877 -6.167216627148569 a32.091768388106416,32.091768388106416 0 0,0 0.30319594407211886,0.4617882238999085 l -9.32394465807692 6.007610339270987" fill="#ff880c" stroke="none" /><path d="M 117.65298651832404 88.62581576622439 l 4.073907791187562 -2.624903028180663 a25.846322378716746,25.846322378716746 0 0,0 0.23775220105231726,0.3760668857501836 l -4.118487588485835 2.554388494716273" fill="#ff3104" stroke="none" /><line stroke="#e1ed5e" stroke-width="0.3" x1="172.23445277983987" x2="176.4835382374775" y1="55.19839476539836" y2="52.563006222186495" /><path d="M 173.08426987136738 54.67131705675599 a86.0,86.0 0 0,1 12.851231095245387,41.99856678651699" fill="none" id="id15" stroke="none" /><text fill="#e1ed5e" style="font-size:6.75px; font-family:Arial;" text-anchor="middle"><textPath startOffset="22.20632615414155" xlink:href="#id15">March</textPath></text><path d="M 118.03404312379186 89.2402003453031 l 7.446043484316858 -4.442594240318359 a29.670652060511216,29.670652060511216 0 0,0 0.2579090707525415,0.44085020436970557 l -7.5214122295397265 4.313764623594758" fill="#ff6709" stroke="none" /><path d="M 118.21658344932153 89.55222093294921 l 4.878281314315962 -2.7978465633078735 a26.623661971830984,26.623661971830984 0 0,0 0.2245799180534807,0.39950261491647066 l -4.925718873661876 2.7134604384566092" fill="#ff3c05" stroke="none" /><path d="M 118.3937258080291 89.86733742301442 l 6.2008380886062415 -3.4158930442977877 a28.079457485654668,28.079457485654668 0 0,0 0.22957216326792174,0.4253623525664045 l -6.258718351092628 3.3086497083989244" fill="#ff5007" stroke="none" /><path d="M 119.04729006885535 91.15688171328212 l 6.118581755034494 -2.840684528409427 a27.74585289514867,27.74585289514867 0 0,0 0.1973888636386201,0.43492019614231786 l -6.166572935636462 2.734942323425046" fill="#ff4c07" stroke="none" /><path d="M 119.196687751892 91.48605970444005 l 28.75223880276772 -12.751931358904327 a52.45318727177882,52.45318727177882 0 0,0 0.35895287187220326,0.8285127184384836 l -28.967482384482604 12.25511949587924" fill="#80ff26" stroke="none" /><path d="M 119.61058180528143 92.48833698450437 l 6.338947513953394 -2.428078782696186 a27.788064684402713,27.788064684402713 0 0,0 0.16725161288231122,0.448151170254261 l -6.37980371533733 2.3186044754125916" fill="#ff4c07" stroke="none" /><path d="M 119.97218684219823 93.5106431181261 l 7.638536672431203 -2.481911015270262 a29.031632759520086,29.031632759520086 0 0,0 0.15033480285014805,0.4766024077244699 l -7.6801269590495576 2.3500584411193732" fill="#ff5e08" stroke="none" /><path d="M 120.28053869075195 94.5502522615342 l 6.412613941368631 -1.7231854073266821 a27.640104329681797,27.640104329681797 0 0,0 0.1195153743153636,0.46054149062658845 l -6.441325647554297 1.6125474911512434" fill="#ff4a06" stroke="none" /><line stroke="#e1ed5e" stroke-width="0.3" x1="184.98032266829074" x2="189.97916517819016" y1="98.17113171792111" y2="98.06355123074" /><path d="M 185.9800911702706 98.14961562048488 a86.0,86.0 0 0,1 -9.607161424134198,41.387399972396054" fill="none" id="id16" stroke="none" /><text fill="#e1ed5e" style="font-size:6.75px; font-family:Arial;" text-anchor="middle"><textPath startOffset="21.466115282336823" xlink:href="#id16">April</textPath></text><path d="M 120.95626037817324 101.35467743843564 l 6.407492305508575 0.4142001056764442 a27.420865936358894,27.420865936358894 0 0,0 -0.03450255440202098,0.47075994240847735 l -6.399413192442216 -0.5244331845816919" fill="#ff4706" stroke="none" /><path d="M 120.89721153311464 102.0752229133903 l 6.770972695323566 0.6723996482023099 a27.804277516953572,27.804277516953572 0 0,0 -0.05139514579210407,0.4758552193775768 l -6.758395248030411 -0.7888511894646781" fill="#ff4d07" stroke="none" /><path d="M 120.8583938346157 102.4346265915055 l 6.747224346793996 0.7875473032011001 a27.793030777256128,27.793030777256128 0 0,0 -0.059554497068210734,0.4747079378259894 l -6.732668340478937 -0.9035729953144844" fill="#ff4c07" stroke="none" /><path d="M 120.81339534386255 102.79330883721812 l 6.728614957974135 0.9030290019398222 a27.788941053729786,27.788941053729786 0 0,0 -0.06770702572656241,0.4735427802355571 l -6.712073881230971 -1.0187172541557885" fill="#ff4c07" stroke="none" /><path d="M 120.76222939487914 103.15116336523771 l 6.806083349748213 1.0329854325648984 a27.884027125717267,27.884027125717267 0 0,0 -0.07610778648515995,0.47392325909364647 l -6.787293808901764 -1.1499879213517499" fill="#ff4e07" stroke="none" /><path d="M 120.64145759157962 103.86396538481128 l 12.228959945700996 2.289192888282664 a33.441377151799685,33.441377151799685 0 0,0 -0.1107866118969904,0.5648985472640288 l -12.187743400828342 -2.4993551626146377" fill="#ff9a0e" stroke="none" /><path d="M 120.5718875245553 104.21870165774334 l 6.690603099622365 1.3720500053283144 a27.82983828899322,27.82983828899322 0 0,0 -0.10027483172761771,0.4684506306210415 l -6.6659942291703045 -1.487014455365525" fill="#ff4d07" stroke="none" /><path d="M 120.49622156327973 104.57218783832717 l 6.658581233021527 1.4853608037042976 a27.822243088158583,27.822243088158583 0 0,0 -0.10829401926517479,0.46652780067656624 l -6.6320266478258 -1.5997572617294287" fill="#ff4d07" stroke="none" /><path d="M 120.41448212921028 104.9243191809786 l 4.611379837317768 1.1123429945445453 a25.743641105894625,25.743641105894625 0 0,0 -0.10761906752124453,0.4298846784943847 l -4.591549455501463 -1.191555512436326" fill="#ff2f04" stroke="none" /><path d="M 120.32669344350535 105.2749913415812 l 5.621774565032494 1.4589097945166762 a26.807991653625457,26.807991653625457 0 0,0 -0.11975758411619927,0.4456625214111845 l -5.5958289045745175 -1.5554632491034088" fill="#ff3f05" stroke="none" /><path d="M 120.13307415673323 105.97154293290107 l 6.639468461605626 1.9692904651056966 a27.925362545644234,27.925362545644234 0 0,0 -0.14065503454234043,0.45966879113020165 l -6.604586654557153 -2.0832862287879554" fill="#ff4e07" stroke="none" /><path d="M 120.02730092923936 106.31721596034902 l 11.976402568556017 3.7777193103035156 a33.55808033385498,33.55808033385498 0 0,0 -0.17850941020528052,0.54939547301966 l -11.90960090733449 -3.983313683300971" fill="#ff9b0e" stroke="none" /><path d="M 119.9155931802556 106.66101706037122 l 5.584400202135315 1.8677718851599092 a26.888471570161713,26.888471570161713 0 0,0 -0.15058718088444198,0.4376768359470749 l -5.551422190307642 -1.9636214241962846" fill="#ff4006" stroke="none" /><path d="M 119.79798401119884 107.00284435728193 l 6.48655075521845 2.2943904454468607 a27.880375586854463,27.880375586854463 0 0,0 -0.16393095138279476,0.45106757266334685 l -6.446095542830428 -2.4057058151163386" fill="#ff4e07" stroke="none" /><path d="M 119.67450827220406 107.3425965602758 l 6.491664043992964 2.4227121420478057 a27.929014084507042,27.929014084507042 0 0,0 -0.1719705374495371,0.44896080745308453 l -6.448999226949921 -2.534096516334034" fill="#ff4e07" stroke="none" /><path d="M 119.54520255179757 107.68017299344265 l 11.563718064083162 4.543895359702396 a33.424434011476265,33.424434011476265 0 0,0 -0.21502636451794002,0.5336778025497217 l -11.48378908530783 -4.742272530094931" fill="#ff990e" stroke="none" /><path d="M 119.41010516605496 108.01547362559984 l 6.456804728060584 2.6663610300230447 a27.985685967657798,27.985685967657798 0 0,0 -0.18770268615260807,0.44367370358763164 l -6.409951060715668 -2.77710925927684" fill="#ff4f07" stroke="none" /><path d="M 119.12269723197855 108.67885076344098 l 11.41988459074881 5.182923355241221 a33.54099113197705,33.54099113197705 0 0,0 -0.24313286793509645,0.5236865674168559 l -11.328977105973882 -5.378729989936907" fill="#ff9b0e" stroke="none" /><path d="M 118.97047184881838 109.00673069616215 l 5.491178069429832 2.607081282435613 a27.07864371413667,27.07864371413667 0 0,0 -0.20353693931271005,0.4193463806342247 l -5.445487873502408 -2.7012166190351135" fill="#ff4206" stroke="none" /><path d="M 118.64920377521936 109.65438752849418 l 12.081674750375631 6.254485255201068 a34.60461137193531,34.60461137193531 0 0,0 -0.2783982045305149,0.5266244858690539 l -11.972224037620222 -6.4615247561562565" fill="#ffa90f" stroke="none" /><line stroke="#e1ed5e" stroke-width="0.3" x1="174.80103733775053" x2="179.2010983576182" y1="140.37084112569926" y2="142.7455964860345" /><path d="M 175.68104954172406 140.8457921977663 a86.0,86.0 0 0,1 -30.038265399797805,32.042727171017184" fill="none" id="id17" stroke="none" /><text fill="#e1ed5e" style="font-size:6.75px; font-family:Arial;" text-anchor="middle"><textPath startOffset="22.206326154141568" xlink:href="#id17">May</textPath></text><path d="M 118.48025628344425 109.97397251340804 l 4.285774197592637 2.3130736603343034 a25.87013041210224,25.87013041210224 0 0,0 -0.21487433497317007,0.39005933244595764 l -4.245323453167958 -2.3865035111780664" fill="#ff3104" stroke="none" /><path d="M 117.94076556474637 110.91462005526583 l 21.3068038266767 12.962416097629209 a45.94001043296818,45.94001043296818 0 0,0 -0.416818878166816,0.6720447496250207 l -21.08052030884192 -13.327257178619503" fill="#c9ff1d" stroke="none" /><path d="M 117.75023020441432 111.22182372390056 l 27.182945130778947 17.18525422155938 a53.15968701095462,53.15968701095462 0 0,0 -0.4956384848163382,0.7692419351221528 l -26.88310178258556 -17.650617756602983" fill="#78ff26" stroke="none" /><path d="M 117.14729908036423 112.12312394758627 l 5.557382682995877 3.929064208559746 a27.80603025560772,27.80603025560772 0 0,0 -0.2796759754190349,0.3884454687049713 l -5.488926915201239 -4.0241432827158485" fill="#ff4d07" stroke="none" /><path d="M 116.93607887273984 112.41649034213515 l 5.566083108292145 4.080709453288609 a27.90170057381325,27.90170057381325 0 0,0 -0.2873061137682953,0.3848934902867264 l -5.495015727828757 -4.17591582308465" fill="#ff4e07" stroke="none" /><path d="M 116.498646956653 112.99209946851258 l 9.802336440161751 7.718992374890019 a33.47672404799165,33.47672404799165 0 0,0 -0.3604041747777826,0.44965962271048054 l -9.668014353329115 -7.886579831178749" fill="#ff9a0e" stroke="none" /><path d="M 116.27256486870786 113.27417163493432 l 5.224424234669134 4.261768476220264 a27.742201356285864,27.742201356285864 0 0,0 -0.30503739356786536,0.367437190958762 l -5.150290841207725 -4.351066924292796" fill="#ff4c07" stroke="none" /><path d="M 116.0416608686014 113.55231037782055 l 5.074754729866789 4.28725253287715 a27.643317683881065,27.643317683881065 0 0,0 -0.3102073748819583,0.36084125868118616 l -5.000204845414052 -4.373970890719864" fill="#ff4a06" stroke="none" /><path d="M 115.80600337817218 113.82643327865902 l 4.2874917875062755 3.7505191992189313 a26.69640062597809,26.69640062597809 0 0,0 -0.30553541127125694,0.3432722735219136 l -4.22229752658668 -3.8237656424817112" fill="#ff3d05" stroke="none" /><path d="M 115.32070863581623 114.36230785411682 l 17.375617662650388 16.288670188728464 a44.8166510172144,44.8166510172144 0 0,0 -0.5324505151395361,0.5582722364146966 l -17.09266059613189 -16.58534954172567" fill="#d6ff1c" stroke="none" /><path d="M 114.55890576462653 115.13401014063108 l 4.560828486446036 4.740989857304982 a27.578612415232133,27.578612415232133 0 0,0 -0.344948248509822,0.3261700995501223 l -4.478544403545407 -4.818794593601026" fill="#ff4906" stroke="none" /><path d="M 114.29624159901734 115.38237550388516 l 5.1676277231850545 5.560229907403316 a28.590818988002088,28.590818988002088 0 0,0 -0.36337630804805227,0.33193564183278956 l -5.071151865670139 -5.648358315822689" fill="#ff5808" stroke="none" /><path d="M 113.75828350139079 115.86535959552629 l 4.331167932926092 4.994484720244239 a27.610892018779346,27.610892018779346 0 0,0 -0.36174807699378403,0.30828955917103135 l -4.244554379355261 -5.068298669638218" fill="#ff4a06" stroke="none" /><path d="M 113.48314897796784 116.09983520530334 l 3.646428667781766 4.354094190838531 a26.679311424100156,26.679311424100156 0 0,0 -0.3546187032535824,0.2918270504592976 l -3.5709398359834923 -4.416216360155007" fill="#ff3d05" stroke="none" /><path d="M 112.04921762599082 117.19931262002967 l 3.939304291495034 5.623047746162369 a27.86562336984872,27.86562336984872 0 0,0 -0.39521828935243486,0.2718347432093712 l -3.8419291175197157 -5.6900232787368346" fill="#ff4d07" stroke="none" /><path d="M 111.7513745106137 117.40417183066458 l 3.8215772326082726 5.65988146836761 a27.82925404277517,27.82925404277517 0 0,0 -0.39931706468006184,0.26464557637593467 l -3.7235854691882464 -5.724825065834863" fill="#ff4d07" stroke="none" /><path d="M 111.1453310114006 117.79835938074945 l 2.958289842163587 4.724193988441388 a26.574001043296818,26.574001043296818 0 0,0 -0.38977833630266423,0.2394336895193557 l -2.876532305928614 -4.7744161447891225" fill="#ff3b05" stroke="none" /><line stroke="#e1ed5e" stroke-width="0.3" x1="143.8653032363475" x2="146.44561519142675" y1="172.8068346515853" y2="177.08958963109032" /><path d="M 144.38136562736335 173.6633856474863 a86.0,86.0 0 0,1 -40.68145358897372,12.25698825130547" fill="none" id="id18" stroke="none" /><text fill="#e1ed5e" style="font-size:6.75px; font-family:Arial;" text-anchor="middle"><textPath startOffset="21.466115282336833" xlink:href="#id18">June</textPath></text><path d="M 110.8373102113329 117.98757091392108 l 10.554043914868373 17.51741065313502 a41.451100678142936,41.451100678142936 0 0,0 -0.6143292529654905,0.3629565510805929 l -10.250946790874501 -17.696485776509363" fill="#feff18" stroke="none" /><path d="M 106.2309692047433 120.05430185196036 l 0.43806389651570427 1.4099035515187996 a22.476390193009912,22.476390193009912 0 0,0 -0.37045910143078875,0.11161628833874895 l -0.4137298206446697 -1.4172352089632743" fill="#ff0000" stroke="none" /><path d="M 103.41894727170886 120.7198165907248 l 1.4265529252638813 8.645326359085939 a29.762232655190402,29.762232655190402 0 0,0 -0.5061905773034986,0.07905655783979824 l -1.2775264843518657 -8.668601224272843" fill="#ff6809" stroke="none" /><line stroke="#e1ed5e" stroke-width="0.3" x1="102.19456741930631" x2="102.32365962044197" y1="184.97166512339345" y2="189.96999836594603" /><path d="M 102.22038585953345 185.97133177190398 a86.0,86.0 0 0,1 -42.740103519485714,-10.115201625700543" fill="none" id="id19" stroke="none" /><text fill="#e1ed5e" style="font-size:6.75px; font-family:Arial;" text-anchor="middle"><textPath startOffset="22.20632615414155" xlink:href="#id19">July</textPath></text><line stroke="#e1ed5e" stroke-width="0.3" x1="58.666819895761336" x2="56.23545636021788" y1="174.27360380694188" y2="178.64263932499728" /><path d="M 58.180547188652646 175.14741091055294 a86.0,86.0 0 0,1 -31.652253787137756,-30.449443065178592" fill="none" id="id20" stroke="none" /><text fill="#e1ed5e" style="font-size:6.75px; font-family:Arial;" text-anchor="middle"><textPath startOffset="22.20632615414155" xlink:href="#id20">August</textPath></text><path d="M 87.36589467227662 116.77436683061367 l -3.521380648915727 4.675355256499262 a26.853124673969745,26.853124673969745 0 0,0 -0.36682809614974404,-0.2812681417751506 l 3.601337473558958 -4.614047772896745" fill="#ff3f05" stroke="none" /><path d="M 85.44109423537348 115.13401014063109 l -3.878830709887106 4.032051875756381 a26.59488784559207,26.59488784559207 0 0,0 -0.3271805019747201,-0.32021498354970274 l 3.9476611642376205 -3.964686789284109" fill="#ff3c05" stroke="none" /><path d="M 85.18274418774928 114.88116024355367 l -3.8034821283736764 3.819885932523676 a26.39054773082942,26.39054773082942 0 0,0 -0.3191489050554074,-0.3232961558482318 l 3.868671658484617 -3.753849282694779" fill="#ff3905" stroke="none" /><path d="M 83.28015986056508 112.70617746262583 l -4.260462968863416 3.237722257143175 a26.35111111111111,26.35111111111111 0 0,0 -0.27133956608779697,-0.3635036904527646 l 4.315563801646298 -3.1639056871811024" fill="#ff3805" stroke="none" /><line stroke="#e1ed5e" stroke-width="0.3" x1="26.63291911575756" x2="22.317208475507996" y1="142.92168965132927" y2="145.44649492493687" /><path d="M 25.769776987707644 143.4266507060508 a86.0,86.0 0 0,1 -11.730757126820373,-40.83630448921669" fill="none" id="id21" stroke="none" /><text fill="#e1ed5e" style="font-size:6.75px; font-family:Arial;" text-anchor="middle"><textPath startOffset="21.46611528233685" xlink:href="#id21">September</textPath></text><path d="M 79.97269907076064 106.31721596034903 l -60.081902787718064 18.951647881047084 a84.0,84.0 0 0,0 -0.42309290997547855,-1.3826921097918088 l 60.399222470199675 -17.914628798703227" fill="#4dd2ff" stroke="none" /><line stroke="#e1ed5e" stroke-width="0.3" x1="15.007084014347285" x2="10.007500721073583" y1="101.09737516637583" y2="101.16192664675087" /><path d="M 14.007167355692545 101.11028546245083 a86.0,86.0 0 0,1 10.666146001902534,-42.60595125391555" fill="none" id="id22" stroke="none" /><text fill="#e1ed5e" style="font-size:6.75px; font-family:Arial;" text-anchor="middle"><textPath startOffset="22.20632615414155" xlink:href="#id22">October</textPath></text><line stroke="#e1ed5e" stroke-width="0.3" x1="26.266209847984243" x2="21.928928074336255" y1="57.711370442889674" y2="55.22380399835377" /><path d="M 25.398753493254645 57.213857153982495 a86.0,86.0 0 0,1 29.58750427330803,-30.492523968695096" fill="none" id="id23" stroke="none" /><text fill="#e1ed5e" style="font-size:6.75px; font-family:Arial;" text-anchor="middle"><textPath startOffset="21.46611528233685" xlink:href="#id23">November</textPath></text><line stroke="#e1ed5e" stroke-width="0.3" x1="56.762969772571076" x2="54.21961505331055" y1="26.818313649435495" y2="22.513508569990535" /><path d="M 56.25429882871897 25.957352633546506 a86.0,86.0 0 0,1 42.265352541879196,-11.944610805530505" fill="none" id="id24" stroke="none" /><text fill="#e1ed5e" style="font-size:6.75px; font-family:Arial;" text-anchor="middle"><textPath startOffset="22.20632615414155" xlink:href="#id24">December</textPath></text></svg>