<?xml version="1.0" encoding="utf-8" ?>
<svg baseProfile="full" height="200mm" version="1.1" viewBox="0,0,200,200" width="200mm" xmlns="http://www.w3.org/2000/svg" xmlns:ev="http://www.w3.org/2001/xml-events" xmlns:xlink="http://www.w3.org/1999/xlink"><defs /><rect fill="#1a1a1a" height="200" width="200" x="0" y="0" /><rect fill="#1a1a1a" height="200" width="180" x="10" y="0" /><text alignment-baseline="middle" fill="#e1ed5e" style="dominant-baseline: central; font-size:9.0px; font-family:Arial;" text-anchor="middle" x="100.0" y="100.0">2026</text><line stroke="#e1ed5e" stroke-width="0.3" x1="100.0" x2="100.0" y1="15.0" y2="10.0" /><path d="M 100.0 14.0 a86.0,86.0 0 0,1 42.46469731375804,11.215312516191453" fill="none" id="id25" stroke="none" /><text fill="#e1ed5e" style="font-size:6.75px; font-family:Arial;" text-anchor="middle"><textPath startOffset="22.20632615414155" xlink:href="#id25">January</textPath></text><line stroke="#e1ed5e" stroke-width="0.3" x1="143.23703022742887" x2="145.7803849466894" y1="26.81831364943548" y2="22.513508569990506" /><path d="M 143.74570117128098 25.957352633546492 a86.0,86.0 0 0,1 28.547481713284135,27.462654790039103" fill="none" id="id26" stroke="none" /><text fill="#e1ed5e" style="font-size:6.75px; font-family:Arial;" text-anchor="middle"><textPath startOffset="19.985693538727396" xlink:href="#id26">February</textPath></text><path d="M 114.42810811169701 84.74124197986012 l 1.696606627760965 -1.794283061088401 a23.469397852244793,23.469397852244793 0 0,0 0.29115101918269004,0.2800870497750977 l -1.7272408905560732 1.7648129245510014" fill="#ff0801" stroke="none" /><path d="M 114.68862486808459 84.99185889309783 l 30.498944512225645 -31.162376802584316 a64.60366205201191,64.60366205201191 0 0,0 0.7880545426578258,0.7846703860087441 l -31.03083485505079 30.632770565925455" fill="#35ff61" stroke="none" /><path d="M 115.19652480421416 85.50635884689758 l 2.786927431554576 -2.658023899088302 a24.851240781472377,24.851240781472377 0 0,0 0.2925732767028696,0.3120967725048369 l -2.8322680302279086 2.6096577097054103" fill="#ff1c02" stroke="none" /><path d="M 115.68641384162765 86.03803664274999 l 2.179350067854899 -1.9397681393093447 a23.91757898822616,23.91757898822616 0 0,0 0.27107516203415827,0.3098857702849323 l -2.212417093466905 1.9019668128214646" fill="#ff0e01" stroke="none" /><path d="M 115.9244219780498 86.31012108654704 l 2.2928200748708916 -1.971087505630183 a24.023608746280242,24.023608746280242 0 0,0 0.26687871172596395,0.315900216804629 l -2.326409400083973 1.9313283391964475" fill="#ff1001" stroke="none" /><path d="M 116.15771136456269 86.58626213691792 l 1.632871677142273 -1.3555702380768722 a23.12222538491396,23.12222538491396 0 0,0 0.2515934936667608,0.30842387448589637 l -1.6559636628854428 1.3272621939828748" fill="#ff0300" stroke="none" /><path d="M 116.38621287248628 86.86637796730983 l 11.114978716823183 -8.908704561824829 a35.244569802044246,35.244569802044246 0 0,0 0.375347819878495,0.47665361407779155 l -11.266680617295641 8.716058553793998" fill="#ffac10" stroke="none" /><path d="M 117.04232023915458 87.72973835380427 l 1.7345461419964376 -1.2488519580096493 a23.137353862077887,23.137353862077887 0 0,0 0.229927322007026,0.32521589107291576 l -1.7557860838073465 1.2188095666049403" fill="#ff0300" stroke="none" /><path d="M 117.2510076193507 88.02491185347247 l 1.59358331168761 -1.1062136802309668 a22.93990115150731,22.93990115150731 0 0,0 0.22238107782973998,0.32631679133141633 l -1.6123888551860832 1.078618865629144" fill="#ff0000" stroke="none" /><line stroke="#e1ed5e" stroke-width="0.3" x1="172.23445277983987" x2="176.4835382374775" y1="55.19839476539836" y2="52.563006222186495" /><path d="M 173.08426987136738 54.67131705675599 a86.0,86.0 0 0,1 12.851231095245387,41.99856678651699" fill="none" id="id27" stroke="none" /><text fill="#e1ed5e" style="font-size:6.75px; font-family:Arial;" text-anchor="middle"><textPath startOffset="22.20632615414155" xlink:href="#id27">March</textPath></text><path d="M 118.03404312379186 89.2402003453031 l 1.7639716136093475 -1.0524529096844164 a23.05408202872299,23.05408202872299 0 0,0 0.20039522087194628,0.3425403915354119 l -1.781826508951621 1.0219331057951093" fill="#ff0200" stroke="none" /><path d="M 119.34039704204932 91.81776055985345 l 2.8396677461081974 -1.2013632077253653 a24.083340147496443,24.083340147496443 0 0,0 0.1582370784617846,0.3831836367476885 l -2.8599265114561794 1.1523050005243736" fill="#ff1101" stroke="none" /><path d="M 119.47837535516314 92.15188598940014 l 2.2663968004139776 -0.9131634522174268 a23.443444688834262,23.443444688834262 0 0,0 0.14758926670740388,0.37559858543947267 l -2.281779617003082 0.8740158618821697" fill="#ff0701" stroke="none" /><path d="M 120.91429891909075 98.10471618934814 l 8.994777517994548 -0.8151196593402981 a30.03163565791176,30.03163565791176 0 0,0 0.04222378783546248,0.5152371605253581 l -9.007475789649504 0.6601685816071712" fill="#ff6609" stroke="none" /><line stroke="#e1ed5e" stroke-width="0.3" x1="184.98032266829074" x2="189.97916517819016" y1="98.17113171792111" y2="98.06355123074" /><path d="M 185.9800911702706 98.14961562048488 a86.0,86.0 0 0,1 -9.607161424134198,41.387399972396054" fill="none" id="id28" stroke="none" /><text fill="#e1ed5e" style="font-size:6.75px; font-family:Arial;" text-anchor="middle"><textPath startOffset="21.466115282336823" xlink:href="#id28">April</textPath></text><path d="M 120.9764740272857 100.99374915477107 l 2.4305461353184104 0.11514581356537386 a23.433272092120585,23.433272092120585 0 0,0 -0.022555806648913223,0.40274907985019553 l -2.4282039777819677 -0.15696660975099275" fill="#ff0701" stroke="none" /><path d="M 120.95626037817324 101.35467743843564 l 2.432563877728676 0.15724844715829056 a23.437641091991203,23.437641091991203 0 0,0 -0.02949062544954944,0.4023761538480953 l -2.4294966936147886 -0.1990977375031561" fill="#ff0701" stroke="none" /><path d="M 120.70491114924044 103.5080841355445 l 34.040513391846204 5.7675680970071 a55.52566282830896,55.52566282830896 0 0,0 -0.16777623085385088,0.9409782025573664 l -33.936190718653165 -6.352665050297684" fill="#62ff29" stroke="none" /><path d="M 120.13307415673323 105.97154293290107 l 2.357390483536074 0.6992105811789379 a23.458899210764653,23.458899210764653 0 0,0 -0.11815826109409114,0.38614803384672264 l -2.34500544993585 -0.7396855875777176" fill="#ff0801" stroke="none" /><path d="M 120.02730092923936 106.31721596034902 l 2.8440684799489837 0.8971051494826503 a23.98220106093932,23.98220106093932 0 0,0 -0.12757131886634787,0.39262414789069644 l -2.828204910066389 -0.945928197351142" fill="#ff0f01" stroke="none" /><path d="M 119.79798401119884 107.00284435728193 l 2.324302278158849 0.8221406322994906 a23.465420106093934,23.465420106093934 0 0,0 -0.13797190897251235,0.37963943691533514 l -2.3098061081811103 -0.862027866220957" fill="#ff0801" stroke="none" /><path d="M 119.54520255179757 107.68017299344265 l 2.844854934132619 1.1178691025321688 a24.056604476646395,24.056604476646395 0 0,0 -0.1547611606970875,0.38410450897975895 l -2.825191159178139 -1.1666729793547412" fill="#ff1001" stroke="none" /><path d="M 119.26925614724726 108.34839909993367 l 57.80776844174181 25.045197299801014 a84.0,84.0 0 0,0 -0.5862356610749084,1.3218066540292492 l -57.368091695935625 -26.036552290322952" fill="#4dd2ff" stroke="none" /><line stroke="#e1ed5e" stroke-width="0.3" x1="174.80103733775053" x2="179.2010983576182" y1="140.37084112569926" y2="142.7455964860345" /><path d="M 175.68104954172406 140.8457921977663 a86.0,86.0 0 0,1 -30.038265399797805,32.042727171017184" fill="none" id="id29" stroke="none" /><text fill="#e1ed5e" style="font-size:6.75px; font-family:Arial;" text-anchor="middle"><textPath startOffset="22.206326154141568" xlink:href="#id29">May</textPath></text><path d="M 118.12598468904814 110.60418214915192 l 6.075021445758226 3.5540487910567404 a28.03826316470436,28.03826316470436 0 0,0 -0.24729631191948545,0.41448284323434276 l -6.0129442581405135 -3.658093728177187" fill="#ff4a06" stroke="none" /><path d="M 117.94076556474637 110.91462005526583 l 4.823491695875071 2.9344667043449264 a26.645986802949928,26.645986802949928 0 0,0 -0.2417620331858462,0.3897973762027964 l -4.772265023021262 -3.0170604119129965" fill="#ff3605" stroke="none" /><line stroke="#e1ed5e" stroke-width="0.3" x1="143.8653032363475" x2="146.44561519142675" y1="172.8068346515853" y2="177.08958963109032" /><path d="M 144.38136562736335 173.6633856474863 a86.0,86.0 0 0,1 -40.68145358897372,12.25698825130547" fill="none" id="id30" stroke="none" /><text fill="#e1ed5e" style="font-size:6.75px; font-family:Arial;" text-anchor="middle"><textPath startOffset="21.466115282336833" xlink:href="#id30">June</textPath></text><line stroke="#e1ed5e" stroke-width="0.3" x1="102.19456741930631" x2="102.32365962044197" y1="184.97166512339345" y2="189.96999836594603" /><path d="M 102.22038585953345 185.97133177190398 a86.0,86.0 0 0,1 -42.740103519485714,-10.115201625700543" fill="none" id="id31" stroke="none" /><text fill="#e1ed5e" style="font-size:6.75px; font-family:Arial;" text-anchor="middle"><textPath startOffset="22.20632615414155" xlink:href="#id31">July</textPath></text><line stroke="#e1ed5e" stroke-width="0.3" x1="58.666819895761336" x2="56.23545636021788" y1="174.27360380694188" y2="178.64263932499728" /><path d="M 58.180547188652646 175.14741091055294 a86.0,86.0 0 0,1 -31.652253787137756,-30.449443065178592" fill="none" id="id32" stroke="none" /><text fill="#e1ed5e" style="font-size:6.75px; font-family:Arial;" text-anchor="middle"><textPath startOffset="22.20632615414155" xlink:href="#id32">August</textPath></text><line stroke="#e1ed5e" stroke-width="0.3" x1="26.63291911575756" x2="22.317208475507996" y1="142.92168965132927" y2="145.44649492493687" /><path d="M 25.769776987707644 143.4266507060508 a86.0,86.0 0 0,1 -11.730757126820373,-40.83630448921669" fill="none" id="id33" stroke="none" /><text fill="#e1ed5e" style="font-size:6.75px; font-family:Arial;" text-anchor="middle"><textPath startOffset="21.46611528233685" xlink:href="#id33">September</textPath></text><line stroke="#e1ed5e" stroke-width="0.3" x1="15.007084014347285" x2="10.007500721073583" y1="101.09737516637583" y2="101.16192664675087" /><path d="M 14.007167355692545 101.11028546245083 a86.0,86.0 0 0,1 10.666146001902534,-42.60595125391555" fill="none" id="id34" stroke="none" /><text fill="#e1ed5e" style="font-size:6.75px; font-family:Arial;" text-anchor="middle"><textPath startOffset="22.20632615414155" xlink:href="#id34">October</textPath></text><line stroke="#e1ed5e" stroke-width="0.3" x1="26.266209847984243" x2="21.928928074336255" y1="57.711370442889674" y2="55.22380399835377" /><path d="M 25.398753493254645 57.213857153982495 a86.0,86.0 0 0,1 29.58750427330803,-30.492523968695096" fill="none" id="id35" stroke="none" /><text fill="#e1ed5e" style="font-size:6.75px; font-family:Arial;" text-anchor="middle"><textPath startOffset="21.46611528233685" xlink:href="#id35">November</textPath></text><line stroke="#e1ed5e" stroke-width="0.3" x1="56.762969772571076" x2="54.21961505331055" y1="26.818313649435495" y2="22.513508569990535" /><path d="M 56.25429882871897 25.957352633546506 a86.0,86.0 0 0,1 42.265352541879196,-11.944610805530505" fill="none" id="id36" stroke="none" /><text fill="#e1ed5e" style="font-size:6.75px; font-family:Arial;" text-anchor="middle"><textPath startOffset="22.20632615414155" xlink:href="#id36">December</textPath></text></svg>